# xmcd
#
# Track frame offsets: 
#        182
#        20227
#        22885
#        25270
#        26570
#        36400
#        38620
#        51932
#        53532
#        54420
#        66970
#        76402
#        88150
#        90445
#        100395
#        117420
#        122370
#        134720
#        140370
#        161045
#        166807
#        167932
#        175015
#        176655
#        184907
#        187595
#        200670
#        209795
#        218267
#
# Disc length: 3335 seconds
#
# Revision: 3
# Processed by: cddbd v1.5.2PL0 Copyright (c) Steve Scherf et al.
# Submitted via: ExactAudioCopy v1.0b4
#
DISCID=930d051d
DTITLE=Otto Waalkes - DIE CD, das Allerbeste
DYEAR=1993
DGENRE=Comedy
TTITLE0=Friesenjung (Englishman In New York)
TTITLE1=Demonstration
TTITLE2=Der Veranstalter
TTITLE3=Chiquita Banana
TTITLE4=Es wird Nacht, Senorita
TTITLE5=Märchenstunde
TTITLE6=Susi Sorglos
TTITLE7=Die Vogelpastete
TTITLE8=Briefmarke
TTITLE9=English-Lesson
TTITLE10=Englisch für Fortgelaufene
TTITLE11=Tränen lügen nicht
TTITLE12=Bücherwerbung
TTITLE13=Im Wald
TTITLE14=Robin Hood
TTITLE15=Auf dem Lande (Trecker fahr'n)
TTITLE16=Das Wort zum Montag
TTITLE17=Dupscheck
TTITLE18=Der menschliche Körper
TTITLE19=Drunt' im Tal
TTITLE20=Werbespot 'Allee-Tee'
TTITLE21=Hohes Gericht
TTITLE22=Werbespot 'Quark'
TTITLE23=Deutsches Liedgut 'GNLPFTH'
TTITLE24=Werbespot 'Arroganz'
TTITLE25=Schwamm-drüber-Blues
TTITLE26=Schniedlwutz
TTITLE27=Hänsel und Gretel
TTITLE28=Variationen - Extrabreit, Falco, Udo Lindenberg, Trio, Spider
TTITLE28=Murphy Gang, Nena, Peter Schilling, BAP
EXTD=
EXTT0=
EXTT1=
EXTT2=
EXTT3=
EXTT4=
EXTT5=
EXTT6=
EXTT7=
EXTT8=
EXTT9=
EXTT10=
EXTT11=
EXTT12=
EXTT13=
EXTT14=
EXTT15=
EXTT16=
EXTT17=
EXTT18=
EXTT19=
EXTT20=
EXTT21=
EXTT22=
EXTT23=
EXTT24=
EXTT25=
EXTT26=
EXTT27=
EXTT28=
PLAYORDER=
